<?xml version="1.0" encoding="UTF-8" standalone="no"?>
<svg
   xmlns:dc="http://purl.org/dc/elements/1.1/"
   xmlns:cc="http://creativecommons.org/ns#"
   xmlns:rdf="http://www.w3.org/1999/02/22-rdf-syntax-ns#"
   xmlns:svg="http://www.w3.org/2000/svg"
   xmlns="http://www.w3.org/2000/svg"
   xmlns:sodipodi="http://sodipodi.sourceforge.net/DTD/sodipodi-0.dtd"
   xmlns:inkscape="http://www.inkscape.org/namespaces/inkscape"
   sodipodi:docname="plug-in-logo-probesys-2.svg"
   inkscape:version="1.0 (4035a4fb49, 2020-05-01)"
   version="1.1"
   id="svg3665"
   height="90"
   width="90">
  <defs
     id="defs3667" />
  <sodipodi:namedview
     inkscape:document-rotation="0"
     inkscape:window-maximized="0"
     inkscape:window-y="23"
     inkscape:window-x="26"
     inkscape:window-height="991"
     inkscape:window-width="1770"
     units="px"
     showgrid="false"
     inkscape:current-layer="layer1"
     inkscape:document-units="mm"
     inkscape:cy="39.979303"
     inkscape:cx="36.844875"
     inkscape:zoom="6.8270899"
     inkscape:pageshadow="2"
     inkscape:pageopacity="0.0"
     borderopacity="1.0"
     bordercolor="#666666"
     pagecolor="#ffffff"
     id="base" />
  <metadata
     id="metadata3670">
    <rdf:RDF>
      <cc:Work
         rdf:about="">
        <dc:format>image/svg+xml</dc:format>
        <dc:type
           rdf:resource="http://purl.org/dc/dcmitype/StillImage" />
        <dc:title></dc:title>
      </cc:Work>
    </rdf:RDF>
  </metadata>
  <g
     transform="translate(0,-343.70087)"
     id="layer1"
     inkscape:groupmode="layer"
     inkscape:label="Calque 1">
    <g
       id="g3686"
       transform="matrix(8.1878374,0,0,8.1878374,-163.57798,199.4276)"
       inkscape:export-filename="/home/nico/travail/Dev/Communication/logos/logo_w50_600dpi.png"
       inkscape:export-xdpi="599.99878"
       inkscape:export-ydpi="599.99878">
      <path
         sodipodi:nodetypes="cccccssscccsssscccc"
         id="path3031"
         d="m 29.299141,19.680573 -0.01747,1.048452 -0.0087,0.235898 -0.227161,0.05242 -1.11835,0.244634 c 1.066959,1.11269 1.051606,2.880085 -0.04369,3.975377 -1.109641,1.109645 -2.909418,1.109645 -4.01906,0 -1.109641,-1.109637 -1.109639,-2.909418 0,-4.01906 0.942128,-0.942129 2.376291,-1.068323 3.468626,-0.410641 l 1.354248,-0.323275 0.02623,-1.266876 c -1.92401,-1.364079 -4.602608,-1.198823 -6.325651,0.524224 -1.923405,1.923404 -1.923401,5.048796 0,6.9722 1.923398,1.923402 5.048793,1.923396 6.972195,0 1.923396,-1.923404 1.923402,-5.048803 0,-6.9722 -0.02042,-0.0204 -0.04049,-0.04118 -0.06117,-0.06117 z m -2.027003,1.135822 0.655282,0.445589 z"
         style="display:inline;fill:#4d4d4d;fill-opacity:1;stroke:none;stroke-width:0.166962"
         inkscape:connector-curvature="0" />
      <path
         d="m 26.351224,23.227194 a 0.06689397,0.06689397 0 0 1 -0.06689,0.06689 0.06689397,0.06689397 0 0 1 -0.06689,-0.06689 0.06689397,0.06689397 0 0 1 0.06689,-0.06689 0.06689397,0.06689397 0 0 1 0.06689,0.06689"
         style="display:inline;fill:#ffffff;fill-opacity:1;stroke:none;stroke-width:0.0637734"
         id="path3033" />
    </g>
    <g
       id="g1068"
       transform="matrix(0.09554473,0,0,0.09554473,3.6311771,359.01399)">
      <g
         id="g1009" />
      <g
         id="g1011" />
      <g
         id="g1013" />
      <g
         id="g1015" />
      <g
         id="g1017" />
      <g
         id="g1019" />
      <g
         id="g1021" />
      <g
         id="g1023" />
      <g
         id="g1025" />
      <g
         id="g1027" />
      <g
         id="g1029" />
      <g
         id="g1031" />
      <g
         id="g1033" />
      <g
         id="g1035" />
      <g
         id="g1037" />
      <g
         id="g1039" />
    </g>
    <text
       id="text1636"
       y="403.95486"
       x="30.875389"
       style="font-style:normal;font-weight:normal;font-size:40px;line-height:1.25;font-family:sans-serif;fill:#217189;fill-opacity:1;stroke:none"
       xml:space="preserve"><tspan
         style="font-style:normal;font-variant:normal;font-weight:bold;font-stretch:normal;font-size:37.3333px;font-family:Aganè;-inkscape-font-specification:'Aganè, Bold';font-variant-ligatures:normal;font-variant-caps:normal;font-variant-numeric:normal;font-variant-east-asian:normal;fill:#217189;fill-opacity:1"
         y="403.95486"
         x="30.875389"
         id="tspan1634"
         sodipodi:role="line">VIP</tspan></text>
    <g
       id="g1673"
       transform="translate(23.470734,8.3824235)">
      <rect
         y="401.28925"
         x="-12.113035"
         height="17.451136"
         width="34.147804"
         id="rect1518"
         style="fill:#ffffff;fill-opacity:1;stroke:none;stroke-width:4.49441;stroke-linejoin:round;paint-order:markers stroke fill" />
      <g
         style="fill:#00aad4;fill-opacity:1"
         id="g1516"
         transform="matrix(0.08794948,0,0,0.08794948,-16.495017,377.25088)">
        <g
           style="fill:#00aad4;fill-opacity:1"
           id="g1414">
          <g
             style="fill:#00aad4;fill-opacity:1"
             id="g1412">
            <path
               style="fill:#00aad4;fill-opacity:1"
               id="path1410"
               d="m 438.09,273.32 h -39.596 c 4.036,11.05 6.241,22.975 6.241,35.404 v 149.65 c 0,5.182 -0.902,10.156 -2.543,14.782 h 65.461 c 24.453,0 44.346,-19.894 44.346,-44.346 V 347.229 C 512,306.476 478.844,273.32 438.09,273.32 Z" />
          </g>
        </g>
        <g
           style="fill:#00aad4;fill-opacity:1"
           id="g1420">
          <g
             style="fill:#00aad4;fill-opacity:1"
             id="g1418">
            <path
               style="fill:#00aad4;fill-opacity:1"
               id="path1416"
               d="m 107.265,308.725 c 0,-12.43 2.205,-24.354 6.241,-35.404 H 73.91 C 33.156,273.321 0,306.477 0,347.231 v 81.581 c 0,24.452 19.893,44.346 44.346,44.346 h 65.462 c -1.641,-4.628 -2.543,-9.601 -2.543,-14.783 z" />
          </g>
        </g>
        <g
           style="fill:#00aad4;fill-opacity:1"
           id="g1426">
          <g
             style="fill:#00aad4;fill-opacity:1"
             id="g1424">
            <path
               style="fill:#00aad4;fill-opacity:1"
               id="path1422"
               d="m 301.261,234.815 h -90.522 c -40.754,0 -73.91,33.156 -73.91,73.91 v 149.65 c 0,8.163 6.618,14.782 14.782,14.782 h 208.778 c 8.164,0 14.782,-6.618 14.782,-14.782 v -149.65 c 0,-40.754 -33.156,-73.91 -73.91,-73.91 z" />
          </g>
        </g>
        <g
           style="fill:#00aad4;fill-opacity:1"
           id="g1432">
          <g
             style="fill:#00aad4;fill-opacity:1"
             id="g1430">
            <path
               style="fill:#00aad4;fill-opacity:1"
               id="path1428"
               d="m 256,38.84 c -49.012,0 -88.886,39.874 -88.886,88.887 0,33.245 18.349,62.28 45.447,77.524 12.853,7.23 27.671,11.362 43.439,11.362 15.768,0 30.586,-4.132 43.439,-11.362 27.099,-15.244 45.447,-44.28 45.447,-77.524 C 344.886,78.715 305.012,38.84 256,38.84 Z" />
          </g>
        </g>
        <g
           style="fill:#00aad4;fill-opacity:1"
           id="g1438">
          <g
             style="fill:#00aad4;fill-opacity:1"
             id="g1436">
            <path
               style="fill:#00aad4;fill-opacity:1"
               id="path1434"
               d="m 99.918,121.689 c -36.655,0 -66.475,29.82 -66.475,66.475 0,36.655 29.82,66.475 66.475,66.475 9.298,0 18.152,-1.926 26.195,-5.388 13.906,-5.987 25.372,-16.585 32.467,-29.86 4.98,-9.317 7.813,-19.946 7.813,-31.227 0,-36.654 -29.82,-66.475 -66.475,-66.475 z" />
          </g>
        </g>
        <g
           style="fill:#00aad4;fill-opacity:1"
           id="g1444">
          <g
             style="fill:#00aad4;fill-opacity:1"
             id="g1442">
            <path
               style="fill:#00aad4;fill-opacity:1"
               id="path1440"
               d="m 412.082,121.689 c -36.655,0 -66.475,29.82 -66.475,66.475 0,11.282 2.833,21.911 7.813,31.227 7.095,13.276 18.561,23.874 32.467,29.86 8.043,3.462 16.897,5.388 26.195,5.388 36.655,0 66.475,-29.82 66.475,-66.475 0,-36.655 -29.82,-66.475 -66.475,-66.475 z" />
          </g>
        </g>
        <g
           style="fill:#00aad4;fill-opacity:1"
           id="g1446" />
        <g
           style="fill:#00aad4;fill-opacity:1"
           id="g1448" />
        <g
           style="fill:#00aad4;fill-opacity:1"
           id="g1450" />
        <g
           style="fill:#00aad4;fill-opacity:1"
           id="g1452" />
        <g
           style="fill:#00aad4;fill-opacity:1"
           id="g1454" />
        <g
           style="fill:#00aad4;fill-opacity:1"
           id="g1456" />
        <g
           style="fill:#00aad4;fill-opacity:1"
           id="g1458" />
        <g
           style="fill:#00aad4;fill-opacity:1"
           id="g1460" />
        <g
           style="fill:#00aad4;fill-opacity:1"
           id="g1462" />
        <g
           style="fill:#00aad4;fill-opacity:1"
           id="g1464" />
        <g
           style="fill:#00aad4;fill-opacity:1"
           id="g1466" />
        <g
           style="fill:#00aad4;fill-opacity:1"
           id="g1468" />
        <g
           style="fill:#00aad4;fill-opacity:1"
           id="g1470" />
        <g
           style="fill:#00aad4;fill-opacity:1"
           id="g1472" />
        <g
           style="fill:#00aad4;fill-opacity:1"
           id="g1474" />
      </g>
    </g>
  </g>
</svg>
